<?xml version="1.0" encoding="UTF-8"?>
<svg width="58px" height="58px" viewBox="0 0 58 58" version="1.1" xmlns="http://www.w3.org/2000/svg" xmlns:xlink="http://www.w3.org/1999/xlink">
    <!-- Generator: Sketch 57.1 (83088) - https://sketch.com -->
    <title>Icon-Datapoints</title>
    <desc>Created with Sketch.</desc>
    <defs>
        <circle id="path-1" cx="29" cy="29" r="29"></circle>
    </defs>
    <g id="Icon-Datapoints" stroke="none" stroke-width="1" fill="none" fill-rule="evenodd">
        <g id="icon">
            <g id="Icon-Accounts">
                <mask id="mask-2" fill="white">
                    <use xlink:href="#path-1"></use>
                </mask>
                <use id="Mask" fill="#000000" xlink:href="#path-1"></use>
                <g id="iconspace_User_25px" mask="url(#mask-2)">
                    <g transform="translate(17.000000, 17.000000)" id="User">
                        <polygon fill="none" points="0 0 25 0 25 25 0 25"></polygon>
                        <path d="M12.5,11 C10.0147186,11 8,8.98528137 8,6.5 C8,4.01471863 10.0147186,2 12.5,2 C14.9852814,2 17,4.01471863 17,6.5 C17,8.98528137 14.9852814,11 12.5,11 Z" fill="#FFFFFF" fill-rule="nonzero"></path>
                        <path d="M12.5,12 C16.6421356,12 20,15.3578644 20,19.5 L20,21.5 C20,21.7761424 19.7761424,22 19.5,22 L5.5,22 C5.22385763,22 5,21.7761424 5,21.5 L5,19.5 C5,15.3578644 8.35786438,12 12.5,12 Z" fill="#FFFFFF" fill-rule="nonzero"></path>
                    </g>
                </g>
            </g>
        </g>
    </g>
</svg>