<?xml version="1.0" encoding="UTF-8"?>
<svg width="58px" height="58px" viewBox="0 0 58 58" version="1.1" xmlns="http://www.w3.org/2000/svg" xmlns:xlink="http://www.w3.org/1999/xlink">
    <!-- Generator: Sketch 57.1 (83088) - https://sketch.com -->
    <title>Icon-VIdeo</title>
    <desc>Created with Sketch.</desc>
    <defs>
        <circle id="path-1" cx="29" cy="29" r="29"></circle>
    </defs>
    <g id="Icon-VIdeo" stroke="none" stroke-width="1" fill="none" fill-rule="evenodd">
        <g id="Icon-ContentVideo" transform="translate(0.000000, 0.000000)">
            <mask id="mask-2" fill="white">
                <use xlink:href="#path-1"></use>
            </mask>
            <use id="Mask" fill="#000000" fill-rule="evenodd" xlink:href="#path-1"></use>
            <path d="M29.5,34 C31.4329966,34 33,32.4329966 33,30.5 C33,28.5670034 31.4329966,27 29.5,27 C27.5670034,27 26,28.5670034 26,30.5 C26,32.4329966 27.5670034,34 29.5,34 Z" id="Camera" fill="#FFFFFF" fill-rule="evenodd" mask="url(#mask-2)"></path>
        </g>
        <g id="iconspace_Camera_25px" transform="translate(17.000000, 17.000000)">
            <polygon id="Camera" points="0 0 25 0 25 25 0 25"></polygon>
            <path d="M15.5,3 C15.6404734,3 15.7751384,3.03554131 15.9037073,3.09824763 C16.143645,3.21527132 16.3571153,3.42096661 16.5681316,3.69481245 C16.7318219,3.90724099 16.8604607,4.11552576 16.9472136,4.2763932 L17.809017,6 L19.5,6 C21.4329966,6 23,7.56700338 23,9.5 L23,18.5 C23,20.4329966 21.4329966,22 19.5,22 L5.5,22 C3.56700338,22 2,20.4329966 2,18.5 L2,9.5 C2,7.56700338 3.56700338,6 5.5,6 L7.19102317,6 L8.06025566,4.26204011 C8.13953931,4.11552576 8.26817813,3.90724099 8.43186838,3.69481245 C8.64288472,3.42096661 8.856355,3.21527132 9.09629269,3.09824763 C9.22486161,3.03554131 9.35952655,3 9.5,3 L15.5,3 Z M12.5,9 C10.0147186,9 8,11.0147186 8,13.5 C8,15.9852814 10.0147186,18 12.5,18 C14.9852814,18 17,15.9852814 17,13.5 C17,11.0147186 14.9852814,9 12.5,9 Z M6,9 C5.44771525,9 5,9.44771525 5,10 C5,10.5522847 5.44771525,11 6,11 C6.55228475,11 7,10.5522847 7,10 C7,9.44771525 6.55228475,9 6,9 Z" id="Camera" fill="#FFFFFF" fill-rule="nonzero"></path>
        </g>
    </g>
</svg>